<?xml version="1.0" encoding="UTF-8"?>
<svg version="1.1" xmlns="http://www.w3.org/2000/svg" width="256" height="256">
<path d="M0 0 C2.48716327 1.90747797 4.8002036 3.90417517 7.10546875 6.02734375 C8.45705078 7.24164062 8.45705078 7.24164062 9.8359375 8.48046875 C26.85010067 24.53245166 36.39810389 46.71517659 37.21264648 70.10498047 C37.24660522 71.74490967 37.24660522 71.74490967 37.28125 73.41796875 C37.30509766 74.53945312 37.32894531 75.6609375 37.35351562 76.81640625 C37.39677177 79.13913036 37.42786379 81.46211041 37.44726562 83.78515625 C37.50184815 90.31041872 37.50184815 90.31041872 40.0859375 96.13671875 C40.75238281 96.760625 41.41882813 97.38453125 42.10546875 98.02734375 C43.03190621 100.80665613 43.36221176 102.81754749 43.48046875 105.71484375 C43.52945313 106.52308594 43.5784375 107.33132812 43.62890625 108.1640625 C43.07894361 111.17244025 42.37641196 112.16029716 40.6139679 114.56433105 C37.50324403 119.44702285 37.39310918 123.62200293 37.44604492 129.29882812 C37.43556122 130.29486053 37.42507751 131.29089294 37.41427612 132.31710815 C37.38564258 135.5854248 37.3918042 138.85267473 37.3984375 142.12109375 C37.38531545 144.39653849 37.37000968 146.6719716 37.35261536 148.9473877 C37.31281236 154.91831626 37.30257786 160.88893977 37.29858398 166.85998535 C37.28924381 172.96013617 37.25182461 179.06010842 37.21679688 185.16015625 C37.15226864 197.11587711 37.11898939 209.07146398 37.10546875 221.02734375 C35.82799179 221.51417396 34.54977139 221.99905365 33.27124023 222.48310852 C32.20364723 222.88844802 32.20364723 222.88844802 31.11448669 223.3019762 C28.82277475 224.12941205 26.55582262 224.71442526 24.16796875 225.1953125 C22.92080078 225.45151367 22.92080078 225.45151367 21.6484375 225.71289062 C20.38966797 225.96135742 20.38966797 225.96135742 19.10546875 226.21484375 C18.23535156 226.39208984 17.36523438 226.56933594 16.46875 226.75195312 C14.34883542 227.18292477 12.22731188 227.60596966 10.10546875 228.02734375 C10.43546875 231.98734375 10.76546875 235.94734375 11.10546875 240.02734375 C-31.13453125 240.02734375 -73.37453125 240.02734375 -116.89453125 240.02734375 C-116.39953125 233.59234375 -116.39953125 233.59234375 -115.89453125 227.02734375 C-117.21453125 226.94484375 -118.53453125 226.86234375 -119.89453125 226.77734375 C-127.33891191 225.84679617 -134.61621715 223.84692228 -141.89453125 222.02734375 C-141.89453125 188.03734375 -141.89453125 154.04734375 -141.89453125 119.02734375 C-143.21453125 118.36734375 -144.53453125 117.70734375 -145.89453125 117.02734375 C-149.39487193 112.02685706 -149.76177856 106.93022057 -148.89453125 101.02734375 C-147.51169592 97.48910311 -145.59119845 94.72401095 -142.89453125 92.02734375 C-142.64928561 89.63500001 -142.64928561 89.63500001 -142.76953125 86.85546875 C-142.78677246 85.80560791 -142.80401367 84.75574707 -142.82177734 83.67407227 C-142.84578613 82.55315186 -142.86979492 81.43223145 -142.89453125 80.27734375 C-143.13737061 52.05821533 -135.48622514 29.27503598 -115.83203125 8.52734375 C-109.7944823 2.60590151 -103.18392289 -1.73623334 -95.89453125 -5.97265625 C-95.08757812 -6.46507812 -94.280625 -6.9575 -93.44921875 -7.46484375 C-64.2340528 -23.85383928 -26.7291108 -18.21619562 0 0 Z " fill="#FAD2C1" transform="translate(180.89453125,15.97265625)"/>
<path d="M0 0 C1.98 0.99 1.98 0.99 4 2 C4.99257813 2.05414063 5.98515625 2.10828125 7.0078125 2.1640625 C10 3 10 3 12.0546875 6.2109375 C12.67996897 7.59071856 13.28575352 8.97944948 13.875 10.375 C23.28382272 30.74345092 38.59225732 44.76665767 59.296875 53.04296875 C61.9336193 54.02473961 61.9336193 54.02473961 64.453125 54.61328125 C66.625 55.1875 66.625 55.1875 70 57 C70.85207377 59.52090219 71.19275614 61.91692691 71.5234375 64.5546875 C72.24182774 68.2408538 74.05164459 69.80587504 77 72 C82.8334388 74.75088585 89.15262784 75.18233198 95.3515625 73.27734375 C99.62140334 71.30234246 102.54265498 69.09557503 105 65 C105.16822266 63.93845703 105.16822266 63.93845703 105.33984375 62.85546875 C105.83248792 60.02628364 106.3072757 58.34741665 108 56 C111.14584366 54.63667519 114.16607338 53.7394235 117.46875 52.86962891 C130.71002542 49.33803205 140.500516 41.61308022 150 32 C150.99966797 31.01580078 150.99966797 31.01580078 152.01953125 30.01171875 C158.33319975 23.35600049 163.23340494 14.69599823 166.484375 6.15234375 C168 3 168 3 169.9375 1.9140625 C170.618125 1.81867188 171.29875 1.72328125 172 1.625 C172.680625 1.51414063 173.36125 1.40328125 174.0625 1.2890625 C174.701875 1.19367188 175.34125 1.09828125 176 1 C176.99 0.67 177.98 0.34 179 0 C179 33.66 179 67.32 179 102 C170 105.375 170 105.375 166.0625 106.16796875 C165.23105469 106.33876953 164.39960938 106.50957031 163.54296875 106.68554688 C162.70378906 106.85119141 161.86460937 107.01683594 161 107.1875 C160.12988281 107.36474609 159.25976562 107.54199219 158.36328125 107.72460938 C156.24336667 108.15558102 154.12184313 108.57862591 152 109 C152.33 112.96 152.66 116.92 153 121 C110.76 121 68.52 121 25 121 C25.33 116.71 25.66 112.42 26 108 C24.68 107.9175 23.36 107.835 22 107.75 C14.55561934 106.81945242 7.2783141 104.81957853 0 103 C0 69.01 0 35.02 0 0 Z " fill="#252137" transform="translate(39,135)"/>
<path d="M0 0 C2.48716327 1.90747797 4.8002036 3.90417517 7.10546875 6.02734375 C8.45705078 7.24164062 8.45705078 7.24164062 9.8359375 8.48046875 C26.07994279 23.80584754 35.5503945 44.71950661 37.10546875 67.02734375 C37.21697934 71.5492904 37.20050794 76.06689648 37.16796875 80.58984375 C37.16345703 81.78931641 37.15894531 82.98878906 37.15429688 84.22460938 C37.14260644 87.15890734 37.12622013 90.09309824 37.10546875 93.02734375 C34.37890625 92.6796875 34.37890625 92.6796875 31.10546875 91.02734375 C29.13929031 87.73418762 27.96515085 84.20981638 26.73046875 80.58984375 C26.19873047 79.13868164 26.19873047 79.13868164 25.65625 77.65820312 C23.10546875 70.56230393 23.10546875 70.56230393 23.10546875 67.02734375 C22.48285156 67.02476563 21.86023438 67.0221875 21.21875 67.01953125 C-1.50929638 66.06856697 -25.97774068 56.01893413 -41.5234375 39.1796875 C-47.7781907 31.35866991 -51.64554423 22.77295417 -53.89453125 13.02734375 C-54.10207031 13.8265625 -54.30960937 14.62578125 -54.5234375 15.44921875 C-59.46024227 33.04820479 -68.78999513 45.06864861 -84.6015625 54.28125 C-97.85854634 61.31075389 -113.65254596 67.69003876 -128.89453125 67.02734375 C-128.9925 67.66285156 -129.09046875 68.29835938 -129.19140625 68.953125 C-130.15872489 73.18245707 -131.62249981 77.1571727 -133.14453125 81.21484375 C-133.43199219 82.03404297 -133.71945313 82.85324219 -134.015625 83.69726562 C-136.26778829 89.67189096 -136.26778829 89.67189096 -139.62890625 91.578125 C-140.3765625 91.72636719 -141.12421875 91.87460938 -141.89453125 92.02734375 C-144.68747828 64.34724373 -140.8960497 38.39187191 -122.8828125 16.3046875 C-114.73746473 6.97514379 -106.53024885 0.20857256 -95.89453125 -5.97265625 C-95.08757812 -6.46507812 -94.280625 -6.9575 -93.44921875 -7.46484375 C-64.2340528 -23.85383928 -26.7291108 -18.21619562 0 0 Z " fill="#330B00" transform="translate(180.89453125,15.97265625)"/>
<path d="M0 0 C0.66 0 1.32 0 2 0 C2 33.66 2 67.32 2 102 C-7.00948849 105.37855819 -7.00948849 105.37855819 -10.39453125 106.16796875 C-11.12220703 106.33876953 -11.84988281 106.50957031 -12.59960938 106.68554688 C-13.32986328 106.85119141 -14.06011719 107.01683594 -14.8125 107.1875 C-15.93688477 107.45336914 -15.93688477 107.45336914 -17.08398438 107.72460938 C-20.11816684 108.42689111 -22.87519383 109 -26 109 C-26.29132813 108.05640625 -26.58265625 107.1128125 -26.8828125 106.140625 C-32.8199654 87.33635609 -41.24034359 71.4618994 -58.25 60.76953125 C-60.5147901 59.31221603 -62.22193423 57.99415015 -64 56 C-62.96875 55.484375 -61.9375 54.96875 -60.875 54.4375 C-60.14796875 54.07011719 -59.4209375 53.70273438 -58.671875 53.32421875 C-56.69421193 52.34406118 -54.70224883 51.39264015 -52.703125 50.45703125 C-45.00049891 46.78230679 -38.35980274 42.75410724 -32 37 C-31.24203125 36.33484375 -30.4840625 35.6696875 -29.703125 34.984375 C-21.54992885 27.39346824 -15.49614469 18.09343562 -11.4375 7.75 C-9.58175305 3.30923011 -9.58175305 3.30923011 -6.95703125 1.9140625 C-4.75 1.375 -4.75 1.375 -1 1 C-0.67 0.67 -0.34 0.34 0 0 Z " fill="#330B00" transform="translate(216,135)"/>
<path d="M0 0 C1.98 0.99 1.98 0.99 4 2 C4.99257813 2.05414063 5.98515625 2.10828125 7.0078125 2.1640625 C10 3 10 3 12.0546875 6.2109375 C12.67996897 7.59071856 13.28575352 8.97944948 13.875 10.375 C23.29190745 30.76095294 38.69068867 44.92454567 59.4765625 53.125 C61.64173156 53.87577069 63.76622862 54.4966149 66 55 C66 55.66 66 56.32 66 57 C63.98163739 58.35655529 61.97731087 59.59910101 59.875 60.8125 C52.60048737 65.07658507 46.83835692 69.60772465 42 76.5625 C41.56993652 77.17528809 41.13987305 77.78807617 40.69677734 78.41943359 C34.36154596 87.63756456 30.22183301 97.31109518 27 108 C17.47425791 107.59636686 9.50512412 105.37628103 0 103 C0 69.01 0 35.02 0 0 Z " fill="#330B00" transform="translate(39,135)"/>
<path d="M0 0 C6.16829639 5.64995216 8.10989958 12.57101879 8.52734375 20.82958984 C8.67283713 29.29447568 6.92786141 36.41302559 3 44 C2.4946875 45.1034375 1.989375 46.206875 1.46875 47.34375 C-1.34060071 50.36646912 -1.84261389 50.41235953 -5.765625 50.5859375 C-7.59466952 50.54617566 -9.42324641 50.47478066 -11.25 50.375 C-12.65378906 50.33439453 -12.65378906 50.33439453 -14.0859375 50.29296875 C-16.3929724 50.22234523 -18.69530769 50.12380579 -21 50 C-21.23733815 31.11466456 -12.51296012 13.73373672 0 0 Z " fill="#F2C3AE" transform="translate(85,206)"/>
<path d="M0 0 C4.09378566 2.94781397 6.83723055 6.20753722 9.5 10.4375 C10.08418701 11.36067017 10.08418701 11.36067017 10.68017578 12.30249023 C17.48206758 23.38427185 22.37144617 36.88208538 22 50 C4.17645796 51.62486709 4.17645796 51.62486709 -0.55859375 48.08984375 C-2.14099594 45.43058604 -3.10856499 42.95889463 -4 40 C-4.32613281 39.30519531 -4.65226563 38.61039063 -4.98828125 37.89453125 C-9.0998751 28.53024041 -8.12296276 16.95980002 -4.625 7.625 C-3.30069006 4.50396547 -2.39473818 2.39473818 0 0 Z " fill="#F2C3AE" transform="translate(170,206)"/>
<path d="M0 0 C3.72905446 1.73110234 7.09025516 3.3544413 8.81640625 7.23828125 C9.63123154 12.29019807 9.63123154 12.29019807 8.81640625 15.23828125 C6.30558282 18.2787315 3.33283159 20.48006858 -0.18359375 22.23828125 C-6.55733433 22.84419443 -11.61671826 22.46706903 -17.18359375 19.23828125 C-20.25566555 16.40252266 -21.08035031 14.88068488 -21.74609375 10.73828125 C-21.02778379 6.26879702 -19.71419053 5.00135699 -16.18359375 2.23828125 C-10.96301361 -1.12609262 -5.87228812 -2.0484726 0 0 Z " fill="#F39F9C" transform="translate(94.18359375,114.76171875)"/>
<path d="M0 0 C2.50371828 1.44426065 3.80651139 2.4443599 4.95703125 5.12890625 C5.62845223 9.66099783 5.32518915 11.55501305 2.83203125 15.44140625 C-2.14532469 20.09415202 -7.04124126 20.58213551 -13.640625 20.453125 C-17.20860535 19.97159269 -19.34165943 18.43490201 -22.04296875 16.12890625 C-22.66171875 15.71640625 -23.28046875 15.30390625 -23.91796875 14.87890625 C-25.8748834 11.8348168 -25.63466867 8.5648001 -25.04296875 5.12890625 C-19.60390942 -4.66140054 -8.93154723 -4.36687233 0 0 Z " fill="#F39F9C" transform="translate(178.04296875,116.87109375)"/>
<path d="M0 0 C1.27746094 0.16242188 2.55492188 0.32484375 3.87109375 0.4921875 C8.94737924 1.05434316 13.95940625 1.1484266 19.0625 1.125 C20.3319043 1.13080078 20.3319043 1.13080078 21.62695312 1.13671875 C26.84014744 1.1286799 31.84083333 0.75150867 37 0 C37.50657287 5.31901517 36.32610043 7.86484812 33 12 C27.36241751 17.2039223 22.31067727 18.48092185 14.7890625 18.30859375 C9.83934887 17.76093636 5.93828275 16.21831793 2.62109375 12.421875 C-0.04186803 8.30217106 -0.39149699 4.7958381 0 0 Z " fill="#F2C2AE" transform="translate(109,192)"/>
<path d="M0 0 C0.03738281 1.00417969 0.07476562 2.00835937 0.11328125 3.04296875 C0.47833522 11.09691021 1.32345825 18.58754175 3.37890625 26.42578125 C4 29 4 29 4 32 C-1.42783897 31.56577288 -4.80623946 30.52657136 -9 27 C-12.54730335 22.03377531 -12.84027735 16.9006143 -12 11 C-10.65128801 7.11338911 -8.76120649 4.54371892 -5.375 2.125 C-4.59125 1.75375 -3.8075 1.3825 -3 1 C-1 0 -1 0 0 0 Z " fill="#F5B9AA" transform="translate(44,106)"/>
<path d="M0 0 C4.74660587 1.09847142 7.92061413 2.4739717 10.8125 6.5625 C12.65617495 11.89945381 13.19718457 16.96610918 11.0859375 22.31640625 C8.53059876 26.79237056 6.01380665 29.32873112 1 31 C-1.875 31.1875 -1.875 31.1875 -4 31 C-3.54678759 27.37430074 -3.02346989 24.08067774 -2 20.5625 C-0.22979368 13.91762105 -0.31522037 6.83530497 0 0 Z " fill="#F5BAAB" transform="translate(212,107)"/>
<path d="M0 0 C4 0 4 0 6.125 1.9375 C6.74375 2.618125 7.3625 3.29875 8 4 C10.82001327 5.41000664 12.87007255 5.24548451 16 5 C19.71156874 3.23526445 19.71156874 3.23526445 22 0 C23.32 0 24.64 0 26 0 C25.74433121 3.45152861 24.73802926 4.24488569 22.125 6.6875 C17.64910912 9.99965925 14.50228925 10.4662957 9 10 C5.63024056 8.12071108 2.40016293 6.06687486 0 3 C0 2.01 0 1.02 0 0 Z " fill="#3B3128" transform="translate(115,118)"/>
<path d="M0 0 C2.9375 0.8125 2.9375 0.8125 4.9375 2.8125 C5.271228 5.94954316 5.46599028 7.97804166 3.75 10.6875 C1.28242892 12.21909584 -0.20769831 12.24072025 -3.0625 11.8125 C-4.875 10.6875 -4.875 10.6875 -6.0625 8.8125 C-6.45954314 5.63615485 -6.56183741 3.67246999 -4.9375 0.875 C-3.0625 -0.1875 -3.0625 -0.1875 0 0 Z " fill="#382E25" transform="translate(162.0625,101.1875)"/>
<path d="M0 0 C2 2 2 2 2.3125 4.9375 C2 8 2 8 0.8125 9.875 C-1.65507108 11.40659584 -3.14519831 11.42822025 -6 11 C-7.8125 9.875 -7.8125 9.875 -9 8 C-9.4375 5 -9.4375 5 -9 2 C-6.12524616 -1.3006433 -4.03854228 -1.38160657 0 0 Z " fill="#382E25" transform="translate(98,102)"/>
<path d="M0 0 C0.66 0.33 1.32 0.66 2 1 C-0.64 3.64 -3.28 6.28 -6 9 C-6.66 8.34 -7.32 7.68 -8 7 C-5.36 4.69 -2.72 2.38 0 0 Z " fill="#3B2C37" transform="translate(93,198)"/>
</svg>
